<?xml version="1.0" encoding="UTF-8" standalone="no"?>
<!-- Created with Inkscape (http://www.inkscape.org/) -->

<svg
   xmlns:dc="http://purl.org/dc/elements/1.1/"
   xmlns:cc="http://creativecommons.org/ns#"
   xmlns:rdf="http://www.w3.org/1999/02/22-rdf-syntax-ns#"
   xmlns:svg="http://www.w3.org/2000/svg"
   xmlns="http://www.w3.org/2000/svg"
   xmlns:xlink="http://www.w3.org/1999/xlink"
   xmlns:sodipodi="http://sodipodi.sourceforge.net/DTD/sodipodi-0.dtd"
   xmlns:inkscape="http://www.inkscape.org/namespaces/inkscape"
   width="256"
   height="256"
   id="svg2985"
   version="1.1"
   inkscape:version="0.48.4 r9939"
   sodipodi:docname="New document 2">
  <defs
     id="defs2987">
	
	
	
	
	
	
	
	
<linearGradient
   x1="99.777"
   y1="15.424"
   gradientTransform="matrix(0.20068,0,0,0.20068,-54.336,-1.0508)"
   x2="153"
   gradientUnits="userSpaceOnUse"
   y2="248.63"
   id="linearGradient3773">
  <stop
     offset="0"
     stop-color="#184375"
     id="stop53300" />
  <stop
     offset="1"
     stop-color="#C8BDDC"
     id="stop53302" />
</linearGradient>
<radialGradient
   gradientTransform="matrix(1.3993,-2.2344e-7,8.1962e-8,0.51326,4.3651,4.8393)"
   r="11.69"
   cy="68.873"
   gradientUnits="userSpaceOnUse"
   cx="14.288"
   fy="72.568"
   id="radialGradient2308">
  <stop
     offset="0"
     stop-opacity=".32673"
     id="stop2302" />
  <stop
     offset="1"
     stop-opacity="0"
     id="stop2304" />
</radialGradient>
<linearGradient
   inkscape:collect="always"
   xlink:href="#linearGradient3773-9"
   id="linearGradient3121-0"
   gradientUnits="userSpaceOnUse"
   gradientTransform="matrix(0.20068,0,0,0.20068,-61.14,-71.3568)"
   x1="99.777"
   y1="15.424"
   x2="153"
   y2="248.63" />
<linearGradient
   x1="99.777"
   y1="15.424"
   gradientTransform="matrix(0.20068,0,0,0.20068,-54.336,-1.0508)"
   x2="153"
   gradientUnits="userSpaceOnUse"
   y2="248.63"
   id="linearGradient3773-9">
  <stop
     offset="0"
     stop-color="#184375"
     id="stop53300-4" />
  <stop
     offset="1"
     stop-color="#C8BDDC"
     id="stop53302-8" />
</linearGradient>
</defs>
  <sodipodi:namedview
     id="base"
     pagecolor="#ffffff"
     bordercolor="#666666"
     borderopacity="1.0"
     inkscape:pageopacity="0"
     inkscape:pageshadow="2"
     inkscape:zoom="0.97227182"
     inkscape:cx="13.794354"
     inkscape:cy="173.79292"
     inkscape:current-layer="layer1"
     showgrid="true"
     inkscape:document-units="px"
     inkscape:grid-bbox="true"
     inkscape:window-width="1366"
     inkscape:window-height="706"
     inkscape:window-x="-8"
     inkscape:window-y="-8"
     inkscape:window-maximized="1"
     inkscape:snap-bbox="true">
    <inkscape:grid
       type="xygrid"
       id="grid2993"
       empspacing="2"
       visible="true"
       enabled="true"
       snapvisiblegridlinesonly="true" />
  </sodipodi:namedview>
  <metadata
     id="metadata2990">
    <rdf:RDF>
      <cc:Work
         rdf:about="">
        <dc:format>image/svg+xml</dc:format>
        <dc:type
           rdf:resource="http://purl.org/dc/dcmitype/StillImage" />
        <dc:title></dc:title>
      </cc:Work>
    </rdf:RDF>
  </metadata>
  <g
     id="layer1"
     inkscape:label="Layer 1"
     inkscape:groupmode="layer"
     transform="translate(0,192)">
    <path
       style="fill:#80bd01;fill-rule:evenodd"
       d="m 128.71875,-188 c -1.19531,0 -2.39063,0.28126 -3.375,0.84375 l -19.40625,11.1875 0,2.875 0,7.09375 0,70 c 0,5.538635 -4.52386,10.0625 -10.0625,10.0625 l -28,0 C 67,-86 66.189529,-85.97491 65.4375,-86.40909 l 0,3.03409 c 0,2.53125 1.406255,4.78125 3.375,5.90625 l 19.84375,11.4375 0.21875,-1.28125 c -0.0042,0.0236 0.06874,-0.24191 0.0625,-0.21875 -0.0062,0.0232 0.0707,-0.21004 0.0625,-0.1875 -0.0082,0.0225 0.10386,-0.2405 0.09375,-0.21875 -0.01011,0.0217 0.105691,-0.2083 0.09375,-0.1875 -0.01194,0.0208 0.138684,-0.2072 0.125,-0.1875 -0.01368,0.0197 0.140326,-0.20595 0.125,-0.1875 -0.01533,0.0185 0.173104,-0.17331 0.15625,-0.15625 -0.01685,0.0171 0.174508,-0.1718 0.15625,-0.15625 -0.01826,0.0156 0.207027,-0.13893 0.1875,-0.125 -0.01953,0.0139 0.176901,-0.1372 0.15625,-0.125 -0.02065,0.0122 0.240373,-0.13538 0.21875,-0.125 -0.02162,0.0104 0.209935,-0.071 0.1875,-0.0625 -0.02244,0.008 0.24183,-0.10027 0.21875,-0.0937 -0.02308,0.007 0.242306,-0.0358 0.21875,-0.0312 -0.02356,0.005 0.242606,-0.0337 0.21875,-0.0312 -0.01002,10e-4 0.04376,0.003 0.09375,0 0.06903,-0.004 0.138909,-0.0315 0.125,-0.0312 l 0,0.0312 c 0.686627,-0.0833 1.483084,-0.24944 2.40625,-0.3125 0.01042,-1e-4 0.02083,-1e-4 0.03125,0 0.05893,-0.004 0.106667,0.002 0.15625,0 0.04958,-0.002 0.08113,-0.003 0.15625,0 0.252027,-0.005 0.500672,-0.002 0.46875,0 -0.0021,1.7e-4 0.03521,-9e-5 0.03125,0 0.520746,-0.0164 0.993241,0 1.34375,0 1.6697,0 3.328451,0.12342 4.9375,0.3125 0.0312,-8.6e-4 0.0625,-8.6e-4 0.0937,0 -0.0214,-0.004 0.20854,0.0364 0.1875,0.0312 -0.021,-0.005 0.20808,0.0693 0.1875,0.0625 -0.0206,-0.007 0.20749,0.0709 0.1875,0.0625 -0.02,-0.008 0.20678,0.10365 0.1875,0.0937 -0.0193,-0.01 0.20595,0.10512 0.1875,0.0937 -0.0185,-0.0114 0.17376,0.13777 0.15625,0.125 -0.0175,-0.0128 0.17272,0.13909 0.15625,0.125 -0.0165,-0.0141 0.17157,0.14032 0.15625,0.125 -0.0153,-0.0153 0.13909,0.17272 0.125,0.15625 -0.0141,-0.0165 0.13777,0.17376 0.125,0.15625 -0.0128,-0.0175 0.13637,0.1747 0.125,0.15625 -0.0114,-0.0185 0.10365,0.20678 0.0937,0.1875 -0.01,-0.0193 0.10212,0.20749 0.0937,0.1875 -0.008,-0.02 0.0693,0.20808 0.0625,0.1875 -0.007,-0.0206 0.0677,0.20854 0.0625,0.1875 -0.005,-0.021 0.0348,0.20888 0.0312,0.1875 l 1.46875,9.03125 c 2.05666,0.59423 4.00232,1.37456 5.84375,2.34375 l 7.78125,-5.34375 c -0.004,0.003 0.0183,-0.0227 0.0312,-0.0312 0.0459,-0.0304 0.13963,-0.10279 0.125,-0.0937 -0.0187,0.0116 0.2071,-0.10381 0.1875,-0.0937 -0.0196,0.0101 0.20784,-0.10223 0.1875,-0.0937 -0.0203,0.008 0.20844,-0.0694 0.1875,-0.0625 -0.0209,0.007 0.20892,-0.0677 0.1875,-0.0625 -0.0214,0.005 0.20926,-0.0347 0.1875,-0.0312 -0.0218,0.003 0.24072,-0.033 0.21875,-0.0312 -0.022,0.002 0.24078,0 0.21875,0 -0.022,0 0.20947,0.002 0.1875,0 -0.022,-0.002 0.24051,0.0347 0.21875,0.0312 -0.0218,-0.003 0.20892,0.0364 0.1875,0.0312 -0.0214,-0.005 0.20844,0.0694 0.1875,0.0625 -0.0209,-0.007 0.20784,0.071 0.1875,0.0625 -0.0203,-0.008 0.2071,0.10381 0.1875,0.0937 -0.0196,-0.0101 0.20625,0.10533 0.1875,0.0937 -0.0187,-0.0116 0.17403,0.13802 0.15625,0.125 0.0105,0.0103 0.021,0.0207 0.0312,0.0312 2.62371,2.00146 4.97588,4.33077 7.03125,6.84375 0.0108,0.0206 0.0213,0.0415 0.0312,0.0625 -0.0139,-0.0181 0.13736,0.17542 0.125,0.15625 -0.0124,-0.0192 0.13576,0.20762 0.125,0.1875 -0.0108,-0.0201 0.10283,0.20843 0.0937,0.1875 -0.009,-0.0209 0.0698,0.2091 0.0625,0.1875 -0.007,-0.0216 0.068,0.24088 0.0625,0.21875 -0.006,-0.0221 0.035,0.24126 0.0312,0.21875 -0.004,-0.0225 0.0331,0.21024 0.0312,0.1875 -0.002,-0.0227 0,0.24156 0,0.21875 0,-0.0228 -0.002,0.24149 0,0.21875 0.002,-0.0227 -0.035,0.21001 -0.0312,0.1875 0.004,-0.0225 -0.0368,0.24088 -0.0312,0.21875 0.006,-0.0221 -0.0698,0.24035 -0.0625,0.21875 0.007,-0.0216 -0.0716,0.20843 -0.0625,0.1875 0.009,-0.0209 -0.10451,0.20762 -0.0937,0.1875 0.0108,-0.0201 -0.13736,0.20667 -0.125,0.1875 0.01,-0.015 -0.0613,0.0782 -0.0937,0.125 -0.009,0.0132 -0.0343,0.0352 -0.0312,0.0312 l -4.15625,5.6875 1.15625,0.65625 c 1.37982,0.78847 3.04554,1.00425 4.6875,0.6875 -0.0435,-0.6012 -0.0719,-1.19006 -0.0937,-1.78125 -0.0631,-1.70669 -0.0203,-3.41878 0.125,-5.125 -0.002,0.0222 0.004,-0.20947 0,-0.1875 -0.004,0.022 0.0678,-0.24037 0.0625,-0.21875 -0.005,0.0216 0.0383,-0.20862 0.0312,-0.1875 -0.007,0.0211 0.10247,-0.20799 0.0937,-0.1875 -0.009,0.0205 0.10407,-0.20723 0.0937,-0.1875 -0.0103,0.0197 0.10561,-0.20634 0.0937,-0.1875 -0.0119,0.0188 0.13833,-0.17409 0.125,-0.15625 -0.0133,0.0178 0.13971,-0.17297 0.125,-0.15625 -0.0147,0.0167 0.141,-0.17174 0.125,-0.15625 -0.016,0.0155 0.17343,-0.13916 0.15625,-0.125 -0.0172,0.0142 0.20576,-0.13775 0.1875,-0.125 -0.0183,0.0128 0.17547,-0.13625 0.15625,-0.125 -0.0192,0.0112 0.20755,-0.10343 0.1875,-0.0937 -0.02,0.01 0.20826,-0.1018 0.1875,-0.0937 -0.0208,0.008 0.20884,-0.0689 0.1875,-0.0625 -0.0213,0.006 0.24053,-0.0359 0.21875,-0.0312 0.0103,-0.0105 0.0207,-0.021 0.0312,-0.0312 L 141,-55.09375 c 0.63405,-2.48312 1.61214,-4.83253 2.78125,-7.03125 l -5.5,-7.34375 0.0312,0 c 0.0139,0.0181 -0.13736,-0.17542 -0.125,-0.15625 0.0124,0.0192 -0.13576,-0.20762 -0.125,-0.1875 0.0108,0.0201 -0.10283,-0.20843 -0.0937,-0.1875 0.009,0.0209 -0.0698,-0.2091 -0.0625,-0.1875 0.007,0.0216 -0.068,-0.24088 -0.0625,-0.21875 0.006,0.0221 -0.035,-0.24126 -0.0312,-0.21875 0.004,0.0225 -0.0331,-0.21024 -0.0312,-0.1875 0.002,0.0227 0,-0.24156 0,-0.21875 0,0.0228 0.002,-0.24149 0,-0.21875 -0.002,0.0227 0.035,-0.21001 0.0312,-0.1875 -0.004,0.0225 0.0368,-0.24088 0.0312,-0.21875 -0.006,0.0221 0.0698,-0.24035 0.0625,-0.21875 -0.007,0.0216 0.0716,-0.20843 0.0625,-0.1875 -0.009,0.0209 0.10451,-0.20762 0.0937,-0.1875 -0.0108,0.0201 0.13736,-0.20667 0.125,-0.1875 -0.0124,0.0192 0.13889,-0.17435 0.125,-0.15625 l -0.0312,0 c 1.8968,-2.51 4.07479,-4.88092 6.53125,-6.9375 0.0103,-0.0105 0.0207,-0.021 0.0312,-0.0312 -0.0174,0.0136 0.20589,-0.13715 0.1875,-0.125 -0.0184,0.0122 0.17555,-0.10441 0.15625,-0.0937 -0.0193,0.0107 0.20758,-0.10285 0.1875,-0.0937 -0.0201,0.009 0.20823,-0.10124 0.1875,-0.0937 -0.0207,0.007 0.20876,-0.0683 0.1875,-0.0625 -0.0213,0.006 0.24041,-0.0354 0.21875,-0.0312 -0.0217,0.004 0.20941,-0.0337 0.1875,-0.0312 -0.0219,0.002 0.24079,-0.0319 0.21875,-0.0312 -0.022,6.7e-4 0.20952,0.001 0.1875,0 -0.022,-10e-4 0.24062,0.0341 0.21875,0.0312 -0.0219,-0.003 0.20908,0.0358 0.1875,0.0312 -0.0216,-0.005 0.20865,0.0687 0.1875,0.0625 -0.0212,-0.006 0.23934,0.0704 0.21875,0.0625 -0.0206,-0.008 0.20741,0.072 0.1875,0.0625 -0.0199,-0.009 0.17535,0.10477 0.15625,0.0937 -0.0154,-0.009 0.11374,0.0674 0.15625,0.0937 0.0101,0.006 0.0347,0.0336 0.0312,0.0312 l 7.6875,5.09375 c 1.94192,-1.14801 4.03428,-2.09488 6.21875,-2.8125 l 1.28125,-9.125 c -4.4e-4,0.003 -0.001,-0.025 0,-0.0312 0.008,-0.0384 0.0356,-0.20708 0.0312,-0.1875 -0.005,0.0228 0.0695,-0.24102 0.0625,-0.21875 -0.007,0.0223 0.0713,-0.2091 0.0625,-0.1875 -0.009,0.0216 0.10434,-0.23954 0.0937,-0.21875 -0.0106,0.0208 0.10604,-0.20733 0.0937,-0.1875 -0.0123,0.0198 0.1389,-0.17499 0.125,-0.15625 -0.0139,0.0187 0.17167,-0.20501 0.15625,-0.1875 -0.0154,0.0175 0.14183,-0.172409 0.125,-0.15625 -0.0168,0.01616 0.20562,-0.139695 0.1875,-0.125 -0.0181,0.0147 0.17554,-0.138129 0.15625,-0.125 -0.0193,0.01313 0.20782,-0.13647 0.1875,-0.125 -0.0203,0.01147 0.20871,-0.103482 0.1875,-0.09375 -0.0212,0.0097 0.2407,-0.101675 0.21875,-0.09375 -0.022,0.0079 0.21003,-0.06856 0.1875,-0.0625 -0.0225,0.0061 0.24171,-0.03541 0.21875,-0.03125 -0.0197,0.0036 0.14879,-0.02529 0.1875,-0.03125 0.13458,-0.01602 -0.02,0.0044 0.0312,0 0.0182,-0.0028 0.0441,0.0029 0.0625,0 0.6743,-0.105741 1.43033,-0.219884 2.25,-0.3125 0.0206,-0.01084 0.0415,-0.02126 0.0625,-0.03125 0.04,-0.01034 0.012,0.0043 0.0312,0 0.0824,-0.01654 0.16605,-0.027 0.25,-0.03125 0.47115,-0.04538 0.82632,-0.04816 0.625,-0.03125 0.0113,-8.08e-4 0.0199,7.88e-4 0.0312,0 0.48741,-0.03394 0.9549,-0.04811 1.34375,-0.0625 0.81511,-0.0298 1.65584,-0.04847 2.5,-0.03125 0.83846,0.01707 1.63976,0.06099 2.4375,0.125 0.0315,0.0095 0.0628,0.01993 0.0937,0.03125 -0.0215,-0.0026 0.20877,0.0355 0.1875,0.03125 -0.0213,-0.0043 0.20838,0.03714 0.1875,0.03125 -0.0209,-0.0059 0.20786,0.07 0.1875,0.0625 -0.0204,-0.0075 0.20721,0.102807 0.1875,0.09375 -0.0197,-0.0091 0.20645,0.104312 0.1875,0.09375 -0.0189,-0.01056 0.17432,0.105753 0.15625,0.09375 -0.0181,-0.012 0.20458,0.138371 0.1875,0.125 -0.0171,-0.01337 0.14099,0.139658 0.125,0.125 -0.016,-0.01466 0.17105,0.140857 0.15625,0.125 -0.0148,-0.01586 0.13853,0.17321 0.125,0.15625 -0.0135,-0.01696 0.13717,0.17421 0.125,0.15625 -0.0122,-0.018 0.10448,0.20635 0.0937,0.1875 -0.0107,-0.0189 0.10299,0.20713 0.0937,0.1875 -0.009,-0.0196 0.10143,0.17654 0.0937,0.15625 -0.008,-0.0203 0.0686,0.23957 0.0625,0.21875 -0.006,-0.0208 0.0669,0.20873 0.0625,0.1875 l 1.8125,8.96875 c 2.07882,0.52551 4.04157,1.25433 5.90625,2.15625 l 6.40625,-4.78125 c 0.004,-0.009 -0.004,-0.0223 0,-0.0312 C 191.7814,-81.53721 192,-82.43609 192,-83.375 l 0,-65.25 c 0,-2.53126 -1.125,-4.78128 -3.375,-5.90625 l -56.53125,-32.625 C 131.10937,-187.71874 129.91406,-188 128.71875,-188 z M 70,-155 c -2.743901,0.97188 -4.516057,4.15047 -4.5625,6.375 l 0,38.5625 C 66.958056,-110.004 68.47871,-110 70,-110 c -0.0423,-14.94459 -0.0653,-30.02562 0,-45 z m 96.71875,66.84375 c -0.0194,0.03176 -0.0625,0.09377 -0.0625,0.09375 0,-8e-6 0.002,0.05324 0,0.0625 0.0182,-0.05307 0.0391,-0.105235 0.0625,-0.15625 z"
       id="path3000-1"
       inkscape:connector-curvature="0"
       sodipodi:nodetypes="sccccssccscccssssssssssssssccccccscccsccsssssssssssssssccccccssssssssssssssccccssssssssssssssccccccscsssssssssssssssccccccsssssssssssssssccccssssssssssssssccccccccsssssssssssssccccccccccccccssssssssssssssscccccssccsccccccccc" />
    <path
       inkscape:connector-curvature="0"
       style="color:#000000;fill:#80bd01;fill-opacity:1;stroke:none"
       d="m 93.904232,-67.992954 c -0.840271,0.05741 -1.645785,0.183389 -2.399246,0.272641 -0.03383,0.0034 -0.07529,-0.0034 -0.109053,0 a 0.87254015,0.87254015 0 0 0 -0.817926,0.708868 l -1.799436,10.087737 c -2.828966,0.702848 -5.510906,1.824403 -7.96113,3.271698 l -8.342831,-5.998113 a 0.87254015,0.87254015 0 0 0 -1.036038,0 c -2.410088,1.87087 -4.568879,4.079677 -6.488869,6.43434 a 0.87254015,0.87254015 0 0 0 -0.05453,1.036037 l 5.78,8.39736 c -1.63978,2.622087 -2.939398,5.534876 -3.707925,8.615472 l -9.978679,1.526792 a 0.87254015,0.87254015 0 0 0 -0.708869,0.763397 c -0.197688,1.615172 -0.272641,3.252749 -0.272641,4.907548 0,1.345653 0.02974,2.698444 0.163585,4.035094 a 0.87254015,0.87254015 0 0 0 0.708868,0.763397 l 9.97868,1.799434 c 0.752516,3.323296 2.056255,6.465731 3.816981,9.269812 l -5.943585,8.124718 a 0.87254015,0.87254015 0 0 0 0.05453,1.0905661 c 1.83752,2.2823721 3.937748,4.3382024 6.216226,6.1616989 a 0.87254015,0.87254015 0 0 0 1.036039,0.054438 l 8.451888,-5.8345263 c 2.885032,1.7596326 6.066973,3.0655553 9.487927,3.7624531 l 1.526788,9.8696242 a 0.87254015,0.87254015 0 0 0 0.817926,0.763396 c 1.233612,0.112896 2.442502,0.109056 3.653395,0.109056 1.730247,0 3.426472,-0.05322 5.125663,-0.272641 a 0.87254015,0.87254015 0 0 0 0.70887,-0.708869 l 1.90849,-10.2513207 c 3.23001,-0.8691723 6.29271,-2.2607874 8.99717,-4.0896232 l 8.07019,5.8890568 a 0.87254015,0.87254015 0 0 0 1.09057,-0.054438 c 2.26382,-1.9263935 4.32056,-4.1120621 6.10716,-6.4888681 a 0.87254015,0.87254015 0 0 0 0.0544,-1.0360376 l -5.94358,-8.5064162 c 1.48444,-2.676808 2.55883,-5.62877 3.16263,-8.724529 l 9.86962,-1.581321 a 0.87254015,0.87254015 0 0 0 0.76341,-0.763396 c 0.0937,-1.130178 0.10908,-2.252292 0.10908,-3.380758 0,-2.007811 -0.2144,-3.952771 -0.49076,-5.834529 a 0.87254015,0.87254015 0 0 0 -0.70887,-0.708868 l -10.25131,-1.908491 c -0.81273,-2.736291 -1.98365,-5.294776 -3.48982,-7.633963 l 5.94359,-8.179246 a 0.87254015,0.87254015 0 0 0 0,-1.036037 c -1.98111,-2.422191 -4.25996,-4.689662 -6.76151,-6.597925 a 0.87254015,0.87254015 0 0 0 -1.03604,0 l -8.61547,5.943584 c -2.33907,-1.329669 -4.83047,-2.392754 -7.5249,-3.053584 l -1.63586,-10.033209 a 0.87254015,0.87254015 0 0 0 -0.70887,-0.708868 c -1.544687,-0.181522 -3.145333,-0.272641 -4.743957,-0.272641 -0.403041,0 -0.850466,-0.0157 -1.308681,0 -0.130048,0.0034 -0.307247,-0.01745 -0.599809,0 0.05256,-0.0034 0.0037,-0.01046 -0.163585,0 z m 1.526797,28.681889 c 0.142731,-0.007 0.30981,0 0.545278,0 6.087813,0 11.069243,4.926742 11.069243,11.014718 0,6.086109 -4.97648,11.014718 -11.069243,11.014718 -6.092765,0 -10.960187,-4.923827 -10.960187,-11.014718 0,-5.901341 4.597271,-10.718817 10.414909,-11.014718 z"
       id="path3243-2" />
    <path
       inkscape:connector-curvature="0"
       style="color:#000000;fill:#80bd01;fill-opacity:1;stroke:none"
       d="m 129.57304,-14.933718 c -0.73057,0.419073 -1.39988,0.884625 -2.03846,1.294377 -0.029,0.01745 -0.069,0.03025 -0.0981,0.04768 a 0.87254015,0.87254015 0 0 0 -0.42559,0.995174 l 2.79309,9.8589607 c -2.23679,1.8691904 -4.15825,4.0506219 -5.72888,6.4236808 L 113.94932,1.9402478 a 0.87254015,0.87254015 0 0 0 -0.93173,0.4530592 c -1.34931,2.7364289 -2.32483,5.6668867 -3.02182,8.624073 a 0.87254015,0.87254015 0 0 0 0.40404,0.955562 l 8.8702,5.024308 c -0.32805,3.075162 -0.22305,6.262997 0.43293,9.369501 l -8.30633,5.736733 a 0.87254015,0.87254015 0 0 0 -0.30368,0.996517 c 0.52853,1.539 1.17723,3.044479 1.90088,4.532667 0.58845,1.210166 1.20672,2.413766 1.91164,3.557291 a 0.87254015,0.87254015 0 0 0 0.97133,0.376552 l 9.76088,-2.745385 c 2.13002,2.659614 4.67668,4.915543 7.48635,6.667337 l -1.79225,9.905805 a 0.87254015,0.87254015 0 0 0 0.52592,0.956934 c 2.65058,1.249032 5.43836,2.179448 8.28485,2.822979 a 0.87254015,0.87254015 0 0 0 0.95551,-0.404129 l 5.04951,-8.943087 c 3.36404,0.320855 6.79669,0.103836 10.17797,-0.765406 l 5.68903,8.208255 a 0.87254015,0.87254015 0 0 0 1.06939,0.328863 c 1.15878,-0.437933 2.24428,-0.970029 3.33326,-1.499554 1.55603,-0.756627 3.05822,-1.546228 4.49036,-2.486626 a 0.87254015,0.87254015 0 0 0 0.32752,-0.947485 l -2.76655,-10.053764 c 2.5247,-2.194163 4.67051,-4.784956 6.30293,-7.612305 l 9.83293,1.76706 a 0.87254015,0.87254015 0 0 0 0.95698,-0.525827 c 1.19348,-2.722413 2.08736,-5.587431 2.65471,-8.5062 a 0.87254015,0.87254015 0 0 0 -0.40414,-0.955514 l -9.065,-5.050857 c 0.16443,-3.056437 -0.16025,-6.181016 -0.971,-9.229121 l 8.1844,-5.7380767 A 0.87254015,0.87254015 0 0 0 186.31306,5.740043 C 185.9031,4.6826788 185.42623,3.6668218 184.93276,2.6519677 184.05475,0.84631 183.01141,-0.8090689 181.93998,-2.3805152 A 0.87254015,0.87254015 0 0 0 180.9925,-2.7080299 L 170.93875,0.058511 c -1.92746,-2.1054073 -4.09933,-3.89423 -6.47677,-5.3392609 l 1.7684,-9.9548531 a 0.87254015,0.87254015 0 0 0 -0.45305,-0.931723 c -2.84086,-1.311978 -5.88184,-2.354626 -8.966,-2.976835 a 0.87254015,0.87254015 0 0 0 -0.93173,0.453059 l -5.14892,9.112696 c -2.68502,-0.172928 -5.39047,-0.0395 -8.10259,0.544471 l -5.85866,-8.307674 a 0.87254015,0.87254015 0 0 0 -0.94748,-0.327515 c -1.46855,0.512248 -2.94788,1.130262 -4.38555,1.829334 -0.36247,0.17625 -0.77171,0.357786 -1.17692,0.572283 -0.11564,0.05957 -0.28392,0.118716 -0.53942,0.262294 0.046,-0.0257 -2e-4,-0.01156 -0.14711,0.07154 z m 13.9156,25.126445 c 0.1253,-0.06871 0.27862,-0.135476 0.49037,-0.2384493 5.47488,-2.6621899 12.10921,-0.4098519 14.77147,5.0651663 2.66144,5.473342 0.34128,12.081926 -5.13804,14.746279 -5.47933,2.664351 -12.00985,0.364775 -14.6734,-5.112858 -2.58064,-5.307174 -0.55291,-11.649992 4.5496,-14.460138 z"
       id="path3243-2-4" />
    <path
       inkscape:connector-curvature="0"
       style="color:#000000;fill:#80bd01;fill-opacity:1;stroke:none"
       d="m 168.05512,-87.388586 c -0.83758,0.08838 -1.6379,0.244016 -2.38754,0.361019 -0.0337,0.0042 -0.0753,-2.54e-4 -0.10899,0.004 a 0.87254015,0.87254015 0 0 0 -0.79119,0.738578 l -1.42584,10.147289 c -2.8011,0.806801 -5.4398,2.026588 -7.83493,3.563349 l -8.55856,-5.686066 a 0.87254015,0.87254015 0 0 0 -1.03534,0.03824 c -2.33938,1.958561 -4.41516,4.245557 -6.24692,6.669486 a 0.87254015,0.87254015 0 0 0 -0.0162,1.03735 l 6.08604,8.178275 c -1.54188,2.680832 -2.73308,5.639611 -3.38736,8.74647 l -9.91552,1.894114 a 0.87254015,0.87254015 0 0 0 -0.68021,0.789035 c -0.13806,1.621356 -0.15238,3.2606 -0.0913,4.91427 0.0497,1.344733 0.12929,2.695506 0.31242,4.026302 a 0.87254015,0.87254015 0 0 0 0.73656,0.736713 l 10.03831,1.429861 c 0.87468,3.293246 2.29353,6.385419 4.15655,9.122591 l -5.6396,8.338577 a 0.87254015,0.87254015 0 0 0 0.0947,1.087814 c 1.92051,2.212985 4.09519,4.189884 6.43941,5.928035 a 0.87254015,0.87254015 0 0 0 1.03735,0.01611 l 8.23076,-6.142544 c 2.94802,1.651943 6.176,2.839514 9.62035,3.409657 l 1.89007,9.806532 a 0.87254015,0.87254015 0 0 0 0.84555,0.732688 c 1.23693,0.06728 2.44486,0.01881 3.65494,-0.02589 1.72906,-0.06387 3.42217,-0.179648 5.11209,-0.461663 a 0.87254015,0.87254015 0 0 0 0.68223,-0.734554 l 1.52877,-10.314782 c 3.19572,-0.98781 6.20496,-2.49154 8.84007,-4.418953 l 8.28207,5.587141 a 0.87254015,0.87254015 0 0 0 1.08784,-0.09462 c 2.19116,-2.008655 4.16581,-4.268759 5.86346,-6.709887 a 0.87254015,0.87254015 0 0 0 0.0162,-1.037338 l -6.25353,-8.281224 c 1.38462,-2.72977 2.34931,-5.719388 2.83842,-8.835318 l 9.80452,-1.944579 a 0.87254015,0.87254015 0 0 0 0.7347,-0.791051 c 0.0519,-1.132867 0.0259,-2.254781 -0.0158,-3.382481 -0.0741,-2.006443 -0.36017,-3.942162 -0.7058,-5.812438 a 0.87254015,0.87254015 0 0 0 -0.73457,-0.682221 l -10.31476,-1.528771 c -0.91318,-2.704424 -2.17775,-5.217938 -3.76924,-7.499934 l 5.6376,-8.393079 a 0.87254015,0.87254015 0 0 0 -0.0382,-1.035322 c -2.06918,-2.347409 -4.43019,-4.529223 -7.00047,-6.34384 a 0.87254015,0.87254015 0 0 0 -1.03533,0.03825 l -8.3902,6.25757 c -2.38655,-1.242419 -4.9155,-2.212818 -7.63248,-2.773735 l -2.00511,-9.965984 a 0.87254015,0.87254015 0 0 0 -0.73456,-0.68222 c -1.55035,-0.124318 -3.15325,-0.15635 -4.75079,-0.09734 -0.40277,0.01488 -0.85046,0.0157 -1.30779,0.04831 -0.12985,0.0078 -0.30769,-0.006 -0.5994,0.02214 0.0524,-0.005 0.004,-0.01062 -0.16347,0.006 z m 2.58451,28.605981 c 0.14238,-0.01226 0.30961,-0.01144 0.54493,-0.02013 6.08365,-0.224726 11.24355,4.514772 11.46828,10.598602 0.22467,6.081962 -4.56648,11.190915 -10.65509,11.415824 -6.08861,0.224909 -11.13448,-4.51589 -11.35932,-10.602629 -0.21785,-5.89732 4.19846,-10.88122 10.0012,-11.39167 z"
       id="path3243-2-5" />
    <path
       style="fill:#80bd01;fill-opacity:1;stroke:none"
       d="m 80,-188 c -4.418278,0 -8,3.58172 -8,8 l 0,21.25 0,48.75 16,0 c 1,0 2,1 2,2 l 0,4 0,4 0,4 c -2,0 -2,-1 -2,-3 l 0,-5 0,-4 -4,0 -12,0 -4,0 -8,0 0,12 c 0,0.241625 0.0049,0.482532 0.03125,0.71875 0.0028,0.03109 -0.0031,0.06276 0,0.09375 C 60.44093,-91.153451 63.857864,-88 68,-88 l 28,0 c 4.41828,0 8,-3.581722 8,-8 l 0,-70 0,-7.09375 0,-4.125 11.125,-6.40625 C 113.80268,-186.22077 111.11288,-188 108,-188 l -4,0 -24,0 z m -6,10 2,0 0,2 -2,0 0,-2 z m 4,0 20,0 0,15 -20,0 0,-15 z m 22,0 2,0 0,2 -2,0 0,-2 z m -26,4 2,0 0,2 -2,0 0,-2 z m 26,0 2,0 0,2 -2,0 0,-2 z m -26,4 2,0 0,2 -2,0 0,-2 z m 26,0 2,0 0,2 -2,0 0,-2 z m -26,4 2,0 0,2 -2,0 0,-2 z m 26,0 2,0 0,2 -2,0 0,-2 z m -26,4 2,0 0,2 -2,0 0,-2 z m 26,0 2,0 0,2 -2,0 0,-2 z m -22,1 20,0 0,15 -20,0 0,-15 z m -4,3 2,0 0,2 -2,0 0,-2 z m 26,0 2,0 0,2 -2,0 0,-2 z m -26,4 2,0 0,2 -2,0 0,-2 z m 26,0 2,0 0,2 -2,0 0,-2 z m -26,4 2,0 0,2 -2,0 0,-2 z m 26,0 2,0 0,2 -2,0 0,-2 z m -26,4 2,0 0,2 -2,0 0,-2 z m 26,0 2,0 0,2 -2,0 0,-2 z m -22,2 20,0 0,15 -20,0 0,-15 z m -4,2 2,0 0,2 -2,0 0,-2 z m 26,0 2,0 0,2 -2,0 0,-2 z m -26,4 2,0 0,2 -2,0 0,-2 z m 26,0 2,0 0,2 -2,0 0,-2 z m -26,4 2,0 0,2 -2,0 0,-2 z m 26,0 2,0 0,2 -2,0 0,-2 z m -26,4 2,0 0,2 -2,0 0,-2 z m 26,0 2,0 0,2 -2,0 0,-2 z m -22,3 20,0 0,15 -20,0 0,-15 z m -4,1 2,0 0,2 -2,0 0,-2 z m 26,0 2,0 0,2 -2,0 0,-2 z m -26,4 2,0 0,2 -2,0 0,-2 z m 26,0 2,0 0,2 -2,0 0,-2 z m -26,4 2,0 0,2 -2,0 0,-2 z m 26,0 2,0 0,2 -2,0 0,-2 z m -26,4 2,0 0,2 -2,0 0,-2 z m 26,0 2,0 0,2 -2,0 0,-2 z m -8,4 6,0 0,14 -6,0 0,-14 z m 8,0 2,0 0,2 -2,0 0,-2 z m 0,4 2,0 0,2 -2,0 0,-2 z m 0,4 2,0 0,2 -2,0 0,-2 z m 0,4 2,0 0,2 -2,0 0,-2 z"
       id="rect4001"
       inkscape:connector-curvature="0" />
  </g>
</svg>
